# xmcd CD database file
#
# Track frame offsets:
#	150
#	19870
#	34572
#	57665
#	71077
#	89877
#	114110
#	132907
#	150865
#	183802
#	202720
#	220780
#	241905
#	257280
#	270885
#	290822
#
# Disc length: 4111 seconds
#
# Revision: 2
# Processed by: cddbd v1.5.2PL0 Copyright (c) Steve Scherf et al.
# Submitted via: CDex 1.70beta2
#
DISCID=d4100d10
DTITLE=John Denver - The Best of John Denver (Live)
DYEAR=1997
DGENRE=Country
TTITLE0=Rocky Mountain High
TTITLE1=Country Roads
TTITLE2=Back Home Again
TTITLE3=I Guess He'd Rather Be In Colorado
TTITLE4=Matthew
TTITLE5=Sunshine On My Shoulders
TTITLE6=Darcey Farrow
TTITLE7=Wild Montana Skies
TTITLE8=Medley: Leaving On A Jetplane, Goodbeye Again
TTITLE9=Bet On The Blues
TTITLE10=I'd Rather Be A Cowboy (Lady's Chains)
TTITLE11=Fly Away
TTITLE12=I'm Sorry
TTITLE13=Annie's Song
TTITLE14=Poems, Prayers and Promises
TTITLE15=Calypso
EXTD=YEAR: 1997
EXTT0=
EXTT1=
EXTT2=
EXTT3=
EXTT4=
EXTT5=
EXTT6=
EXTT7=
EXTT8=
EXTT9=
EXTT10=
EXTT11=
EXTT12=
EXTT13=
EXTT14=
EXTT15=
PLAYORDER=
